PathFileType	4	(X/Y/Z)	Static.trc																																																																									
DataRate	CameraRate	NumFrames	NumMarkers	Units	OrigDataRate	OrigDataStartFrame	OrigNumFrames																																																																					
100	100	12	25	mm	100	236	473																																																																					
Frame#	Time	AA			AI			Ant_Sh			CV7			GH			LAH			Lat_Sh			LCAJ			LPH			Post_Sh			RAH			RCAJ			RHLE			RHME			RPH			RUA			SJN			SXS			TS			TV8			centelbow			centpxt8			centijc7			centLPHRPH			ScapulaThoracicContactPt		
		X1	Y1	Z1	X2	Y2	Z2	X3	Y3	Z3	X4	Y4	Z4	X5	Y5	Z5	X6	Y6	Z6	X7	Y7	Z7	X8	Y8	Z8	X9	Y9	Z9	X10	Y10	Z10	X11	Y11	Z11	X12	Y12	Z12	X13	Y13	Z13	X14	Y14	Z14	X15	Y15	Z15	X16	Y16	Z16	X17	Y17	Z17	X18	Y18	Z18	X19	Y19	Z19	X20	Y20	Z20	X21	Y21	Z21	X22	Y22	Z22	X23	Y23	Z23	X24	Y24	Z24	X25	Y25	Z25
																																																																												
237	2.36	-222.2801208	1525.508667	715.9550781	-270.0118408	1354.312866	646.9146118	-108.9613571	1496.410278	722.5629883	-219.8521118	1593.955566	519.7736206	-166.2879486	1493.154785	718.5803223	0.187262714	1772.741455	486.1784363	-169.6280823	1511.910889	751.3270874	-161.2724152	1557.248535	339.5430603	-207.6967163	1725.100098	463.8086548	-248.1101227	1488.508423	712.895813	-12.40984154	1772.18335	581.0591431	-164.8252563	1557.680664	689.6533813	-175.3448181	1231.900269	850.7301636	-118.2666931	1178.037964	756.9404297	-209.2177887	1725.864136	579.4766235	-223.6264801	1336.991943	758.6130371	-57.07361603	1505.690552	522.184082	2.424821377	1332.727051	522.7996826	-273.4161377	1496.247437	604.958313	-236.6593628	1306.401611	516.3873901	-146.8057556	1204.969116	803.8352966	-117.1172707	1319.564331	519.5935364	-138.4628639	1549.823059	520.9788513	-208.4572525	1725.482117	521.6426392	-255.2360331	1458.689657	655.9426676
238	2.37	-222.2790222	1525.512817	715.9542236	-269.9970398	1354.29126	646.9064331	-108.9123688	1496.427368	722.5429077	-219.8756104	1593.956299	519.737793	-166.2490234	1493.15979	718.5822754	0.294446528	1772.70874	486.2812805	-169.5786896	1511.917236	751.3102417	-161.3012848	1557.245605	339.5143127	-207.6966095	1725.100098	463.8088074	-248.0771027	1488.496704	712.9299316	-12.43585587	1772.234131	581.0273438	-164.8479462	1557.713379	689.6154785	-175.3271027	1231.933594	850.7336426	-118.260788	1178.033447	756.9552612	-209.2279663	1725.802002	579.4833374	-223.6073303	1336.997559	758.5442505	-57.13073349	1505.69458	522.1547241	2.067549706	1332.501831	523.0296631	-273.4251099	1496.210083	604.9575806	-236.6981201	1306.393799	516.350769	-146.7939453	1204.983521	803.8444519	-117.3152852	1319.447815	519.6902161	-138.5031719	1549.825439	520.9462585	-208.4622879	1725.45105	521.6460724	-255.233724	1458.671387	655.9394124
239	2.38	-222.2909241	1525.522461	715.9604492	-269.9927673	1354.284058	646.9067993	-108.9245529	1496.424805	722.5161743	-219.8826599	1593.963379	519.7990723	-166.3067932	1493.147095	718.5649414	0.294549555	1772.70874	486.2811279	-169.6334839	1511.88208	751.3353882	-161.3216095	1557.225586	339.523407	-207.6964874	1725.099976	463.8089905	-248.0871582	1488.475464	712.9337158	-12.40972996	1772.183228	581.0593872	-164.7944489	1557.653198	689.6275635	-175.3422699	1231.934326	850.7393799	-118.2722244	1178.032104	756.9528809	-209.2684326	1725.796387	579.5025635	-223.6139374	1336.965454	758.5496216	-57.13070297	1505.685181	522.159668	2.397288561	1332.703979	522.7570801	-273.4251099	1496.175903	604.9608154	-236.6107635	1306.365234	516.3549194	-146.8072472	1204.983215	803.8461304	-117.1067375	1319.534607	519.5559998	-138.5066814	1549.82428	520.9793701	-208.48246	1725.448181	521.655777	-255.2362671	1458.660807	655.942688
240	2.39	-222.2682343	1525.499023	715.9488525	-269.937439	1354.296265	646.8747559	-108.9214096	1496.446045	722.5128174	-219.853241	1593.922852	519.7755737	-166.296463	1493.152588	718.5640259	0.211392403	1772.734375	486.2173767	-169.6281586	1511.911133	751.3270874	-161.3256226	1557.206665	339.5167236	-207.7549286	1725.108521	463.7747803	-248.0995026	1488.456787	712.9338989	-12.47308922	1772.203613	581.0924683	-164.8114014	1557.69519	689.5930176	-175.3383179	1231.937988	850.7318115	-118.2757721	1177.997803	756.956604	-209.2997589	1725.83313	579.4676514	-223.6139526	1336.965454	758.5496216	-57.08895874	1505.702637	522.1591797	2.388298988	1332.696289	522.7900391	-273.4212952	1496.203491	604.9578857	-236.6580353	1306.382446	516.3825684	-146.807045	1204.967896	803.8442078	-117.1348681	1319.539368	519.5863037	-138.4710999	1549.812744	520.9673767	-208.5273437	1725.470825	521.6212158	-255.2089895	1458.66626	655.9271647
241	2.4	-222.2796173	1525.51062	715.9547119	-269.9373474	1354.296387	646.8746948	-108.9629745	1496.412231	722.562439	-219.8700867	1593.946411	519.7365112	-166.3093567	1493.150024	718.6026611	0.172595128	1772.73999	486.2417603	-169.6321411	1511.893799	751.2822266	-161.3118896	1557.213867	339.519104	-207.7386475	1725.111328	463.7771606	-248.1261597	1488.49585	712.953186	-12.49902153	1772.210327	581.1126099	-164.8149872	1557.703735	689.59198	-175.286438	1231.950928	850.762146	-118.2211838	1178.012451	757.0003662	-209.3444977	1725.842285	579.4408569	-223.5687408	1336.986816	758.5768433	-57.08901596	1505.702759	522.1591187	2.435534	1332.695435	522.7703247	-273.3885193	1496.192627	604.9338379	-236.6580353	1306.382446	516.3825684	-146.7538109	1204.981689	803.8812561	-117.1112506	1319.53894	519.5764465	-138.4795513	1549.824585	520.9478149	-208.5415726	1725.476807	521.6090088	-255.201828	1458.666545	655.9210815
242	2.41	-222.2550507	1525.519653	715.9398804	-269.9127808	1354.256958	646.8560791	-108.923317	1496.413086	722.5174561	-219.896637	1593.930664	519.744873	-166.3153687	1493.141846	718.5756226	0.289568931	1772.759277	486.3374023	-169.6335602	1511.882324	751.3353882	-161.3109283	1557.201172	339.5142517	-207.7385559	1725.111206	463.7773132	-248.1160126	1488.47937	712.9573364	-12.49897385	1772.210327	581.1127319	-164.7941284	1557.685669	689.6350098	-175.3008728	1231.947144	850.7720337	-118.2060928	1178.053955	757.0422974	-209.3088531	1725.767944	579.4205933	-223.5644073	1336.94751	758.5232544	-57.13212204	1505.696899	522.1584473	2.420796633	1332.708252	522.7681274	-273.3952637	1496.162354	604.897644	-236.6508484	1306.376587	516.3231201	-146.7534828	1205.000549	803.9071655	-117.1150259	1319.542419	519.5456238	-138.5143795	1549.813782	520.9516602	-208.5237045	1725.439575	521.5989532	-255.1876984	1458.646322	655.8978678
243	2.42	-222.2795105	1525.511108	715.9545898	-269.9168091	1354.264648	646.8555908	-108.9346542	1496.426636	722.5388184	-219.8566895	1593.948853	519.7380371	-166.2497559	1493.144409	718.5912476	0.301591545	1772.755737	486.3569336	-169.5782318	1511.915771	751.3104248	-161.317627	1557.201904	339.5201111	-207.7533722	1725.124756	463.7779541	-248.111496	1488.456665	712.9530029	-12.56233406	1772.230713	581.145752	-164.7992401	1557.697632	689.5893555	-175.2865143	1231.970947	850.7693481	-118.1916885	1178.057739	757.0105591	-209.3436584	1725.808716	579.3859253	-223.5578308	1336.979492	758.5178833	-57.09495926	1505.661377	522.1321411	2.418173075	1332.7052	522.7543945	-273.3790894	1496.161133	604.9344482	-236.5648346	1306.367188	516.3320923	-146.7391014	1205.014343	803.8899536	-117.0733308	1319.536194	519.5432434	-138.4758244	1549.805115	520.9350891	-208.5485153	1725.466736	521.5819397	-255.191803	1458.64563	655.9148763
244	2.43	-222.2688599	1525.549927	715.9506226	-269.896759	1354.252563	646.8521729	-108.915657	1496.442383	722.5449219	-219.8815002	1593.933594	519.7435303	-166.2944794	1493.150269	718.5776367	0.18487367	1772.736328	486.2609558	-169.6342926	1511.884766	751.335022	-161.3122864	1557.200928	339.511322	-207.7823792	1725.161499	463.7451782	-248.0755615	1488.45813	712.9230957	-12.49855995	1772.209961	581.1137085	-164.8138885	1557.702026	689.5924683	-175.2478485	1231.961304	850.7965698	-118.1693039	1178.05835	757.0279541	-209.3448334	1725.792603	579.3827515	-223.5192108	1336.968872	758.5504761	-57.08374405	1505.714233	522.1567383	2.454108953	1332.707886	522.7675781	-273.3473511	1496.150024	604.9110107	-236.5569153	1306.380493	516.3218994	-146.7085762	1205.009827	803.912262	-117.0514032	1319.544189	519.5447388	-138.4826221	1549.823914	520.9501343	-208.5636063	1725.477051	521.5639648	-255.17099	1458.650838	655.9046021
245	2.44	-222.2324829	1525.495728	715.9283447	-269.8850098	1354.251709	646.8903198	-108.9118576	1496.427368	722.5429077	-219.864624	1593.937012	519.7324829	-166.2477264	1493.139038	718.5823975	0.206650332	1772.784912	486.2732849	-169.5843048	1511.889282	751.3184204	-161.2785339	1557.197754	339.489502	-207.7049103	1725.109741	463.7511902	-248.0785675	1488.446045	712.9299316	-12.54011726	1772.230103	581.1875	-164.7840576	1557.690186	689.6278687	-175.2441864	1232.008667	850.8076782	-118.1714706	1178.011841	757.0379639	-209.3312378	1725.820313	579.3743286	-223.5192261	1336.968872	758.5504761	-57.07690811	1505.689331	522.1389771	2.176416636	1332.43811	522.9976807	-273.3393555	1496.178467	604.9058838	-236.5569458	1306.380493	516.3218994	-146.7078285	1205.010254	803.922821	-117.1902646	1319.409302	519.65979	-138.4707661	1549.813171	520.93573	-208.518074	1725.465027	521.5627594	-255.1522827	1458.641968	655.9081828
246	2.45	-222.2257385	1525.501343	715.9784546	-269.862793	1354.276611	646.8242188	-108.8729019	1496.428223	722.4978638	-219.8444214	1593.941895	519.7354126	-166.2496033	1493.141113	718.5547485	0.263012826	1772.76123	486.381012	-169.5750885	1511.900757	751.305481	-161.2668304	1557.19043	339.4841614	-207.7467957	1725.104492	463.7211914	-248.0848694	1488.452759	712.9307861	-12.58816147	1772.237305	581.1661377	-164.7587128	1557.716919	689.5612183	-175.2419128	1232.011353	850.7955933	-118.1321411	1178.046875	757.0668335	-209.376358	1725.798706	579.3466187	-223.5192413	1336.96875	758.5504761	-57.08108139	1505.666504	522.1425171	2.495789528	1332.710449	522.7479858	-273.2920837	1496.16394	604.8787231	-236.5563049	1306.342285	516.2677612	-146.687027	1205.029114	803.9312134	-117.0302577	1319.526367	519.5078735	-138.4627514	1549.804199	520.9389648	-208.5615768	1725.451599	521.533905	-255.1268717	1458.647298	655.8937988
247	2.46	-222.1787567	1525.485962	715.9522705	-269.8584595	1354.269531	646.824646	-108.8586426	1496.418945	722.5258789	-219.8414001	1593.944702	519.7125244	-166.2654724	1493.142822	718.5670166	0.395074308	1772.781982	486.4126892	-169.5909882	1511.885376	751.2787476	-161.2635345	1557.17981	339.4872742	-207.6600037	1725.098145	463.7253418	-248.0721741	1488.473999	712.9255371	-12.47659206	1772.209473	581.1548462	-164.7305908	1557.729858	689.5418701	-175.2170563	1232.005127	850.8266602	-118.1743622	1178.047485	757.0991821	-209.305481	1725.751709	579.3587036	-223.471344	1336.969971	758.5285645	-57.0838356	1505.648804	522.1118164	2.180573702	1332.456299	522.9760742	-273.3052368	1496.140259	604.9414673	-236.4696655	1306.351685	516.3260498	-146.6957092	1205.026306	803.9629211	-117.1445459	1319.403992	519.651062	-138.4626179	1549.796753	520.9121704	-208.4827423	1725.424927	521.5420227	-255.114151	1458.631917	655.9061279
248	2.47	-222.1891632	1525.501221	715.9572754	-269.8619995	1354.293213	646.8287354	-108.8117142	1496.451294	722.5036011	-219.7969818	1593.937622	519.7427368	-166.1959229	1493.142822	718.5588989	0.323832184	1772.804199	486.3686523	-169.5289764	1511.922607	751.2935181	-161.282486	1557.168457	339.4865723	-207.6912231	1725.096436	463.7464905	-247.9983673	1488.426392	712.9354858	-12.4392128	1772.239868	581.0900269	-164.7156982	1557.730591	689.5949097	-175.2373047	1232.0625	850.8522949	-118.0901947	1178.063354	757.0932617	-209.3053589	1725.751709	579.3584595	-223.4343719	1336.978394	758.5656128	-57.08836365	1505.667603	522.0648804	2.179512501	1332.446655	523.0004883	-273.2930603	1496.171021	604.8775635	-236.5583191	1306.399536	516.3267212	-146.6637497	1205.062927	803.9727783	-117.1894033	1319.423096	519.6636047	-138.4426727	1549.802612	520.9038086	-208.498291	1725.424072	521.552475	-255.114741	1458.655151	655.8878581
